<svg xmlns="http://www.w3.org/2000/svg" viewBox="0 0 32 32">
  <rect width="32" height="32" rx="7" fill="#1B4965" />
  <path
    d="M4 20c3 0 3-3 6-3s3 3 6 3 3-3 6-3 3 3 6 3"
    fill="none"
    stroke="#5CA7B4"
    stroke-width="2.5"
    stroke-linecap="round"
  />
  <path
    d="M4 25c3 0 3-3 6-3s3 3 6 3 3-3 6-3 3 3 6 3"
    fill="none"
    stroke="#1C7293"
    stroke-width="2.5"
    stroke-linecap="round"
  />
  <path d="M16 6v8M16 6c-2 1-3 2.5-3 4M16 6c2 1 3 2.5 3 4" fill="none" stroke="#D9F0F4" stroke-width="2" stroke-linecap="round" />
</svg>
